<svg width="25" height="26" viewBox="0 0 25 26" fill="none" xmlns="http://www.w3.org/2000/svg">
<g id="google-color_svgrepo.com" clip-path="url(#clip0_25_68)">
<g id="Icons">
<g id="Color-">
<g id="Google">
<path id="Fill-1" fill-rule="evenodd" clip-rule="evenodd" d="M5.37917 13.0001C5.37917 12.2062 5.51103 11.4451 5.74636 10.7312L1.62718 7.58569C0.824379 9.21569 0.37207 11.0524 0.37207 13.0001C0.37207 14.9462 0.823822 16.7818 1.62551 18.4107L5.74247 15.259C5.50936 14.5485 5.37917 13.7901 5.37917 13.0001Z" fill="#FBBC05"/>
<path id="Fill-2" fill-rule="evenodd" clip-rule="evenodd" d="M12.6114 5.77783C14.3361 5.77783 15.8939 6.38894 17.1178 7.38894L20.6784 3.83339C18.5087 1.9445 15.727 0.777832 12.6114 0.777832C7.77456 0.777832 3.61755 3.54394 1.62695 7.58561L5.74613 10.7312C6.69525 7.85005 9.40076 5.77783 12.6114 5.77783Z" fill="#EB4335"/>
<path id="Fill-3" fill-rule="evenodd" clip-rule="evenodd" d="M12.6114 20.2224C9.40076 20.2224 6.69525 18.1502 5.74613 15.269L1.62695 18.414C3.61755 22.4563 7.77456 25.2224 12.6114 25.2224C15.5968 25.2224 18.4469 24.1624 20.5861 22.1763L16.6761 19.1535C15.5728 19.8485 14.1837 20.2224 12.6114 20.2224Z" fill="#34A853"/>
<path id="Fill-4" fill-rule="evenodd" clip-rule="evenodd" d="M24.2946 13.0001C24.2946 12.2778 24.1833 11.5001 24.0164 10.7778H12.6113V15.5001H19.1762C18.848 17.1101 17.9545 18.3478 16.676 19.1534L20.586 22.1762C22.833 20.0906 24.2946 16.9839 24.2946 13.0001Z" fill="#4285F4"/>
</g>
</g>
</g>
</g>
<defs>
<clipPath id="clip0_25_68">
<rect width="25" height="25" fill="white" transform="translate(0 0.5)"/>
</clipPath>
</defs>
</svg>
