<svg width="174" height="171" viewBox="0 0 174 171" fill="none" xmlns="http://www.w3.org/2000/svg">
<g id="lotus-yoga_svgrepo.com" clip-path="url(#clip0_25_45)">
<g id="Group">
<g id="Group_2">
<path id="Vector" d="M54.8488 41.1646C57.9825 41.1646 60.5228 38.6733 60.5228 35.6001C60.5228 32.527 57.9825 30.0356 54.8488 30.0356C51.7151 30.0356 49.1748 32.527 49.1748 35.6001C49.1748 38.6733 51.7151 41.1646 54.8488 41.1646Z" fill="#675987"/>
</g>
</g>
<g id="Group_3">
<g id="Group_4">
<path id="Vector_2" d="M121.044 41.1646C124.178 41.1646 126.718 38.6733 126.718 35.6001C126.718 32.527 124.178 30.0356 121.044 30.0356C117.91 30.0356 115.37 32.527 115.37 35.6001C115.37 38.6733 117.91 41.1646 121.044 41.1646Z" fill="#675987"/>
</g>
</g>
<g id="Group_5">
<g id="Group_6">
<path id="Vector_3" d="M87.0012 18.9058C90.1348 18.9058 92.6752 16.4145 92.6752 13.3413C92.6752 10.2682 90.1348 7.77686 87.0012 7.77686C83.8675 7.77686 81.3271 10.2682 81.3271 13.3413C81.3271 16.4145 83.8675 18.9058 87.0012 18.9058Z" fill="#675987"/>
</g>
</g>
<g id="Group_7">
<g id="Group_8">
<path id="Vector_4" d="M172.202 126.13C171.691 125.662 161.386 116.334 146.457 111.223C159.715 92.4801 158.498 68.0495 158.43 66.8846C158.267 64.0527 155.958 61.7944 153.071 61.6418C152.096 61.5914 131.464 60.6302 113.121 69.6049C106.738 50.8961 91.5464 37.6707 90.7355 36.9752C88.5969 35.1408 85.4034 35.1408 83.2647 36.9752C82.4539 37.6707 67.2622 50.8964 60.8793 69.6049C42.5357 60.6299 21.9042 61.5894 20.9292 61.6418C18.0415 61.7941 15.7326 64.0527 15.5695 66.8846C15.5025 68.0495 14.2849 92.4798 27.5432 111.223C12.6135 116.335 2.30851 125.662 1.79806 126.13C-0.601223 128.331 -0.597485 132.063 1.79806 134.259C2.60825 135.002 21.9201 152.452 46.3368 152.452C51.8307 152.452 57.0643 151.567 61.8887 150.189C68.557 157.626 82.1385 162.31 85.2318 163.304C86.3804 163.674 87.6195 163.674 88.7685 163.304C91.8614 162.309 105.443 157.626 112.112 150.189C116.936 151.567 122.17 152.452 127.663 152.452C152.08 152.452 171.392 135.002 172.202 134.259C174.601 132.059 174.597 128.327 172.202 126.13ZM87.0088 49.0043C93.1202 55.4317 104.563 69.6136 104.563 85.6788C104.563 101.677 93.0994 115.908 86.9925 122.353C80.8811 115.926 69.4383 101.744 69.4383 85.6788C69.4379 69.6809 80.9015 55.4497 87.0088 49.0043ZM46.3371 141.323C33.1526 141.323 21.3336 134.694 14.829 130.193C19.5558 126.92 27.0902 122.534 35.908 120.379C46.4673 129.316 59.9665 133.102 70.4816 134.678C63.9678 138.134 55.4813 141.323 46.3371 141.323ZM41.0896 109.894C29.83 98.6412 27.4334 81.4354 26.9719 72.8161C34.1929 73.1564 47.3125 74.6835 58.3448 80.8968C56.6989 96.5415 63.4897 111.447 73.3638 123.837C50.5994 120.763 42.3358 110.829 41.0896 109.894ZM87.0003 152.128C82.1868 150.413 77.1146 147.982 73.6479 145.63C79.3929 142.814 83.9978 139.686 87.0003 137.421C90.0025 139.686 94.6077 142.814 100.353 145.63C96.8849 147.982 91.8125 150.414 87.0003 152.128ZM115.655 80.8965C126.696 74.6785 139.827 73.1537 147.042 72.8147C146.598 81.4194 144.226 98.5898 132.912 109.893C131.668 110.827 123.458 120.709 100.657 123.812C110.543 111.398 117.297 96.5062 115.655 80.8965ZM127.664 141.323C118.519 141.323 110.032 138.134 103.518 134.678C114.034 133.102 127.534 129.316 138.093 120.379C146.912 122.534 154.447 126.921 159.172 130.193C152.664 134.695 140.847 141.323 127.664 141.323Z" fill="#675987"/>
</g>
</g>
</g>
<defs>
<clipPath id="clip0_25_45">
<rect width="174" height="170.642" fill="white" transform="translate(0 0.358398)"/>
</clipPath>
</defs>
</svg>
